<?xml version="1.0" encoding="UTF-8"?><svg xmlns="http://www.w3.org/2000/svg" xmlns:xlink="http://www.w3.org/1999/xlink" height="16.0" preserveAspectRatio="xMidYMid meet" version="1.0" viewBox="36.0 24.0 656.0 16.0" width="656.0" zoomAndPan="magnify"><g fill="#FFF" fill-rule="evenodd" id="change1_1"><circle cx="44" cy="32" fill="inherit" r="8"/><circle cx="76" cy="32" fill="inherit" r="8"/><circle cx="108" cy="32" fill="inherit" r="8"/><circle cx="140" cy="32" fill="inherit" r="8"/><circle cx="172" cy="32" fill="inherit" r="8"/><circle cx="204" cy="32" fill="inherit" r="8"/><circle cx="236" cy="32" fill="inherit" r="8"/><circle cx="268" cy="32" fill="inherit" r="8"/><circle cx="300" cy="32" fill="inherit" r="8"/><circle cx="332" cy="32" fill="inherit" r="8"/><circle cx="364" cy="32" fill="inherit" r="8"/><circle cx="396" cy="32" fill="inherit" r="8"/><circle cx="428" cy="32" fill="inherit" r="8"/><circle cx="460" cy="32" fill="inherit" r="8"/><circle cx="492" cy="32" fill="inherit" r="8"/><circle cx="524" cy="32" fill="inherit" r="8"/><circle cx="556" cy="32" fill="inherit" r="8"/><circle cx="588" cy="32" fill="inherit" r="8"/><circle cx="620" cy="32" fill="inherit" r="8"/><circle cx="652" cy="32" fill="inherit" r="8"/><circle cx="684" cy="32" fill="inherit" r="8"/></g></svg>